<svg width="20" height="20" viewBox="0 0 20 20" fill="none" xmlns="http://www.w3.org/2000/svg">
<path d="M15.3917 14.025L15.7167 16.6583C15.8 17.35 15.0583 17.8333 14.4667 17.4749L10.975 15.3999C10.5917 15.3999 10.2167 15.375 9.85001 15.325C10.4667 14.6 10.8333 13.6833 10.8333 12.6916C10.8333 10.3249 8.78334 8.40831 6.25001 8.40831C5.28334 8.40831 4.39168 8.68329 3.65001 9.16663C3.62501 8.95829 3.61667 8.74995 3.61667 8.53328C3.61667 4.74162 6.90834 1.66663 10.975 1.66663C15.0417 1.66663 18.3333 4.74162 18.3333 8.53328C18.3333 10.7833 17.175 12.775 15.3917 14.025Z" stroke="white" stroke-width="1.5" stroke-linecap="round" stroke-linejoin="round"/>
<path d="M10.8333 12.6916C10.8333 13.6833 10.4667 14.6 9.85001 15.325C9.02501 16.325 7.71667 16.9666 6.25001 16.9666L4.075 18.2583C3.70834 18.4833 3.24167 18.175 3.29167 17.75L3.5 16.1083C2.38334 15.3333 1.66667 14.0916 1.66667 12.6916C1.66667 11.225 2.45001 9.9333 3.65001 9.16664C4.39168 8.6833 5.28334 8.40833 6.25001 8.40833C8.78334 8.40833 10.8333 10.325 10.8333 12.6916Z" stroke="white" stroke-width="1.5" stroke-linecap="round" stroke-linejoin="round"/>
</svg>
